<svg version="1.1" id="Layer_1" xmlns="http://www.w3.org/2000/svg" xmlns:xlink="http://www.w3.org/1999/xlink" x="0px" y="0px"
	 width="100%" viewBox="0 0 1024 1024" enable-background="new 0 0 1024 1024" xml:space="preserve">
<path fill="#000000" opacity="1.000000" stroke="none" 
	d="
M780.453125,614.420410 
	C772.754028,622.983276 764.305664,629.397827 752.435120,629.366272 
	C733.845154,629.316895 721.402039,612.694458 726.533936,594.745239 
	C729.671448,583.771484 737.291870,576.561157 746.739197,571.007141 
	C757.507812,564.676392 769.395325,561.367432 781.529419,559.026123 
	C786.207642,558.123352 788.481079,555.727417 789.162354,550.570801 
	C779.476868,550.663269 770.586060,548.616516 763.851990,540.573853 
	C757.760193,544.307434 752.079468,548.289612 745.041138,549.737061 
	C725.575256,553.739990 711.493408,539.247437 716.752686,520.077332 
	C719.040466,511.738220 722.034302,503.592438 724.720947,495.363251 
	C725.589233,492.703766 726.500427,490.058289 727.389465,487.414001 
	C719.717224,484.767273 717.160461,485.834351 714.437622,492.532745 
	C709.923401,503.638275 705.996582,515.003174 700.282837,525.585388 
	C695.597717,534.262634 689.149841,541.349121 680.478577,546.220032 
	C668.274597,553.075378 653.591675,551.105286 643.599365,541.353027 
	C642.776855,540.550293 641.931885,539.770508 641.015137,538.902161 
	C618.100586,551.709778 595.563171,558.722534 574.647095,535.074280 
	C572.859680,535.140625 571.594360,536.571777 570.165283,537.644165 
	C559.626526,545.552856 548.241943,551.576782 534.981567,553.354065 
	C532.572876,553.676880 531.558044,555.185059 530.974060,557.215515 
	C530.252380,559.724670 528.685486,561.996216 528.696045,564.785278 
	C530.880005,566.364502 533.290649,565.681702 535.521667,565.683838 
	C590.687622,565.737183 645.853577,565.735107 701.019592,565.727722 
	C704.030029,565.727295 707.029724,565.643555 709.791626,567.143799 
	C713.903442,569.377380 715.954590,572.841064 715.164795,577.454407 
	C714.424438,581.779358 711.686707,584.636169 707.241455,585.340576 
	C704.622925,585.755554 701.933899,585.871338 699.276428,585.872925 
	C640.777100,585.908020 582.277710,585.946472 523.778625,585.822083 
	C520.179443,585.814392 518.523804,586.946350 517.085999,590.161865 
	C512.184326,601.123779 507.054993,612.009644 497.658875,620.085083 
	C488.542084,627.920410 478.223846,631.891357 466.257965,628.601318 
	C445.949463,623.017456 439.205688,599.328674 452.899628,582.338623 
	C462.324127,570.645752 475.464447,567.015076 489.586060,565.762878 
	C493.888885,565.381287 498.249756,565.519470 502.579193,565.622559 
	C505.262756,565.686401 507.021271,564.789246 507.956909,562.191895 
	C509.360626,558.295166 510.894135,554.445190 512.332642,550.679504 
	C510.969299,549.087036 509.621399,550.119995 508.435608,550.199829 
	C499.187714,550.822510 490.836365,548.725891 484.179596,541.969116 
	C482.225952,539.986145 480.763184,539.960938 478.664062,541.492126 
	C473.651855,545.148254 468.286713,548.069336 462.121613,549.422974 
	C453.293396,551.361389 445.217133,549.861389 438.066956,544.331299 
	C435.932526,542.680542 434.245483,542.169067 431.857910,543.762146 
	C418.097076,552.943848 400.433472,552.455444 390.014313,540.234131 
	C389.828918,540.016663 389.416168,539.993042 388.818268,539.770691 
	C386.410675,541.492126 383.925964,543.416138 381.299255,545.121338 
	C370.074524,552.408203 357.136414,552.279602 346.266357,544.474426 
	C343.794128,542.699219 342.194641,543.295654 340.047821,544.591492 
	C333.010040,548.839600 325.373230,551.041077 317.135590,550.058044 
	C303.705231,548.455322 295.247620,539.687134 292.914459,525.342834 
	C289.442871,503.999847 303.559418,473.826843 322.196533,462.754791 
	C336.084198,454.504303 344.520844,454.811432 360.751282,464.173828 
	C362.041382,463.856201 362.302490,462.544434 363.043762,461.698730 
	C366.769836,457.447784 371.893311,456.506226 376.512207,459.265320 
	C381.064056,461.984344 382.337372,466.161072 380.177429,471.800781 
	C374.042084,487.820435 367.798401,503.798981 361.742401,519.848450 
	C360.552979,523.000610 358.443024,526.851013 361.891998,529.534119 
	C365.587830,532.409363 369.370117,529.970093 372.323120,527.552307 
	C378.528656,522.471375 383.712708,517.033081 385.229767,508.221497 
	C387.937653,492.493103 394.476990,478.273102 406.914612,467.579926 
	C416.569183,459.279510 427.532349,454.805511 440.569672,457.706512 
	C444.714172,458.628693 448.183350,460.920166 451.616150,463.267578 
	C453.954712,462.086151 454.274811,459.804199 455.047699,457.865326 
	C461.893494,440.691956 468.721527,423.511444 475.505096,406.313416 
	C477.342804,401.654358 480.497742,398.813171 485.642059,398.941895 
	C490.416260,399.061371 494.210693,402.388031 495.538574,406.772156 
	C496.356445,409.472473 495.244598,411.653229 494.336914,413.962494 
	C480.933350,448.063873 467.527069,482.164185 454.140350,516.272156 
	C453.411652,518.128723 452.758514,520.025452 452.226288,521.946777 
	C450.453217,528.347412 453.644135,531.970520 459.747162,529.451416 
	C468.025482,526.034424 474.879852,520.848022 476.844025,510.918304 
	C480.207458,493.914703 486.645325,478.260742 500.465973,466.898621 
	C509.662903,459.337738 520.129028,455.048157 532.428223,457.674347 
	C536.759827,458.599213 540.338806,461.045929 543.827332,463.406281 
	C546.103638,463.153442 546.759094,461.120514 548.158691,460.030945 
	C551.908630,457.111633 557.334412,456.875580 561.185425,459.777527 
	C565.160156,462.772675 566.019897,466.506073 564.110962,471.242798 
	C557.138489,488.544617 550.338501,505.916077 543.518860,523.279114 
	C542.684631,525.403259 541.558838,527.497986 541.795044,529.897461 
	C543.227112,531.099854 544.405762,530.044922 545.536804,529.556885 
	C549.845642,527.697449 553.648865,525.004761 557.479126,522.320374 
	C564.474670,517.417847 569.222717,512.126709 570.328430,502.467712 
	C572.039124,487.522675 579.994873,474.979279 591.975586,465.415894 
	C599.484741,459.421906 608.077759,456.918945 617.644409,457.708130 
	C631.679443,458.865967 640.703857,472.106689 636.614502,486.435760 
	C632.025269,502.516663 620.277771,512.307190 605.767151,519.196045 
	C601.749695,521.103210 597.429932,522.373352 592.858398,524.081665 
	C595.038208,528.745972 599.060730,530.130920 603.336914,530.645569 
	C616.346008,532.211243 634.338257,521.867798 639.283020,509.766937 
	C646.969421,490.956635 654.366333,472.027985 661.871826,453.143860 
	C662.479858,451.613922 663.220093,450.096191 662.992371,448.224701 
	C661.214233,446.584717 658.949219,447.239563 656.889587,447.236053 
	C640.056641,447.207275 623.223511,447.273041 606.390442,447.275330 
	C601.693420,447.275970 597.964111,445.504028 595.847229,441.075409 
	C594.064148,437.345398 594.876770,433.871185 597.218201,430.750549 
	C599.802917,427.305664 603.687866,426.958954 607.594849,426.951263 
	C626.761230,426.913513 645.929810,426.734192 665.092468,426.990265 
	C670.053772,427.056549 672.707642,425.607178 674.161804,420.766541 
	C675.640259,415.844666 677.938171,411.166412 679.916565,406.397736 
	C682.687622,399.718109 688.120911,397.346588 694.365967,400.051025 
	C699.722595,402.370728 701.275146,407.470459 698.630493,413.864410 
	C696.992554,417.824554 694.879639,421.621277 694.059448,426.217072 
	C697.099060,427.456879 700.104187,426.772247 703.001831,426.841034 
	C708.665466,426.975586 714.343201,426.712921 719.997742,426.980560 
	C726.292358,427.278503 730.313110,431.373505 730.322937,436.964722 
	C730.333008,442.708679 726.009888,447.108307 719.681213,447.225708 
	C710.018188,447.405029 700.344543,447.435791 690.685059,447.174713 
	C686.849670,447.071045 685.080078,448.571381 683.746216,451.998749 
	C676.316406,471.089539 668.655762,490.090363 661.165649,509.157928 
	C659.830811,512.556152 658.792786,516.088196 657.859253,519.622253 
	C656.930908,523.137024 657.943848,526.370056 660.717102,528.627014 
	C663.552307,530.934509 666.880737,530.845398 670.129639,529.236511 
	C676.720398,525.972595 681.198425,520.606567 684.032593,514.053223 
	C688.592163,503.510345 692.697388,492.771515 697.035156,482.131958 
	C698.007324,479.747528 697.935974,477.670563 696.081604,475.684814 
	C695.189636,474.729553 694.502808,473.527191 693.933228,472.336212 
	C691.675964,467.616852 692.857666,462.316376 696.765930,459.238434 
	C700.173584,456.554718 705.512024,456.513306 709.232788,459.875549 
	C713.043823,463.319275 716.813965,466.582916 722.242920,466.283875 
	C729.376343,465.890991 736.592285,465.615387 742.923828,461.562927 
	C744.040955,460.847870 745.208923,460.166809 746.436035,459.677032 
	C751.031372,457.842896 755.070190,458.921143 758.089783,462.697083 
	C760.956238,466.281464 761.502869,470.486237 758.631714,474.260590 
	C748.466431,487.623535 742.464844,502.898773 737.669067,518.763672 
	C737.188293,520.354065 736.570496,521.930786 736.327820,523.560303 
	C735.476135,529.279724 738.822144,532.059509 744.101685,529.559875 
	C751.417664,526.096130 756.762451,520.427307 759.795288,512.837585 
	C766.160583,496.908661 772.385132,480.923401 778.758667,464.997803 
	C781.295837,458.658203 786.576843,456.403198 792.399719,458.914764 
	C797.731628,461.214508 799.830383,466.127838 797.677856,471.565979 
	C793.080078,483.181549 788.366638,494.751587 783.817078,506.385895 
	C782.365112,510.098999 781.115540,513.910828 780.066284,517.757385 
	C778.432739,523.745850 779.691772,527.440002 783.711365,529.455994 
	C787.973083,531.593323 793.242615,530.426392 796.787537,526.361206 
	C799.894470,522.798340 801.807312,518.522217 803.520935,514.166077 
	C809.983826,497.737488 816.461609,481.314667 822.871704,464.865479 
	C824.602600,460.423767 827.277649,457.717529 832.444519,457.603394 
	C840.038635,457.435608 844.559265,465.639404 841.999634,471.814545 
	C831.607300,496.886932 821.987610,522.279663 812.096802,547.559631 
	C811.686646,548.608093 811.415588,549.710938 810.898499,551.369812 
	C821.562744,547.981689 829.774597,542.305359 835.815186,533.449402 
	C839.757874,527.669189 844.134583,526.339539 849.406128,528.919067 
	C854.476562,531.400208 856.528931,536.758606 854.215210,541.942810 
	C850.985352,549.180054 845.231873,554.284424 839.148926,558.992432 
	C830.043884,566.039429 819.675781,570.618469 808.509277,573.075195 
	C803.008911,574.285400 800.113525,577.035461 798.112305,582.268372 
	C793.764648,593.637085 788.380432,604.557129 780.453125,614.420410 
M332.238922,479.577606 
	C318.213959,490.018921 312.816711,504.504791 313.215576,521.394470 
	C313.384064,528.529663 318.933380,532.003357 325.788788,529.896118 
	C333.874390,527.410645 338.883636,521.541565 341.995239,514.016296 
	C345.174957,506.326111 348.046234,498.506317 350.957886,490.707947 
	C353.270905,484.513031 349.650299,478.463562 343.004944,477.356903 
	C339.444275,476.763977 336.036469,477.329285 332.238922,479.577606 
M407.319977,502.825806 
	C405.365265,509.517639 403.121368,516.189941 405.075867,523.296021 
	C406.678284,529.122192 411.108704,531.542175 416.895447,529.750977 
	C424.804199,527.302917 429.676270,521.513733 432.791779,514.284912 
	C436.073853,506.669556 438.802460,498.814972 441.750824,491.056519 
	C444.604767,483.546539 440.763092,477.684906 432.728882,477.230560 
	C425.923157,476.845703 421.037628,480.343903 416.874664,485.165253 
	C412.585968,490.132172 409.577820,495.840454 407.319977,502.825806 
M528.184448,505.779968 
	C530.388977,500.211884 532.524536,494.615173 534.820679,489.085205 
	C536.537903,484.949615 535.044067,481.890076 531.715149,479.597900 
	C528.088806,477.100952 524.081909,476.549713 519.831543,478.070770 
	C514.442810,479.999207 510.353027,483.577850 507.126251,488.145599 
	C501.661469,495.881317 498.304932,504.456879 496.982819,513.881104 
	C496.160736,519.741089 495.838379,525.535645 501.592834,528.991028 
	C507.656067,532.631958 512.754272,529.093506 517.474060,525.488953 
	C520.433533,523.228821 522.488159,520.167358 523.896179,516.722107 
	C525.280273,513.335327 526.568909,509.909454 528.184448,505.779968 
M478.265900,608.939087 
	C488.289276,604.407227 492.904663,595.547119 497.505280,585.454590 
	C486.653046,585.203125 477.064056,586.180725 469.447021,593.544556 
	C466.265717,596.620056 463.872955,600.580688 466.307922,605.187317 
	C468.697632,609.708252 472.911255,610.324646 478.265900,608.939087 
M747.426208,596.067139 
	C745.221069,600.053772 743.701538,604.114502 747.822754,607.776245 
	C751.019287,610.616516 755.564941,610.268677 760.144409,606.709900 
	C768.669434,600.084839 772.479980,590.401306 777.663025,580.223450 
	C765.715881,583.409851 755.358521,586.663940 747.426208,596.067139 
M618.351562,479.287018 
	C614.065430,476.294678 609.316589,476.795013 603.989380,481.066956 
	C597.608765,486.183716 593.369690,492.816620 590.800415,500.542511 
	C590.386353,501.787750 589.897034,503.079620 591.442871,504.643829 
	C601.774353,501.051422 610.951782,495.644745 617.255249,486.098511 
	C618.477051,484.248260 619.181519,482.250549 618.351562,479.287018 
z"/>
<path fill="#000000" opacity="1.000000" stroke="none" 
	d="
M232.082825,474.361176 
	C224.192139,474.249542 217.089264,472.522766 210.099533,470.263275 
	C207.863098,469.540344 205.990952,468.995392 204.934738,472.004547 
	C200.791992,483.807343 198.284317,495.845734 201.391403,508.235657 
	C204.853149,522.039734 215.128113,527.852173 228.782867,523.948364 
	C245.872101,519.062622 256.574677,506.965729 264.070007,491.570007 
	C265.811218,487.993561 266.699615,484.005066 268.404144,480.406921 
	C270.955566,475.021027 276.446594,473.246307 281.909698,475.673920 
	C287.186401,478.018707 289.100586,482.736877 286.982452,488.439911 
	C279.387726,508.889038 271.744904,529.320312 264.166656,549.775513 
	C263.201172,552.381531 261.765900,554.885986 261.822540,558.252747 
	C272.961548,560.902344 284.118622,563.331726 295.392365,565.269104 
	C318.006073,569.155212 340.663544,570.684509 363.432373,566.713135 
	C366.538422,566.171387 369.621002,565.413940 372.652222,564.540527 
	C379.979431,562.429260 386.306641,564.875671 388.007629,570.610291 
	C389.861816,576.861389 386.046722,582.422668 378.389099,584.371094 
	C360.128235,589.017517 341.566284,589.843262 322.841248,588.684753 
	C301.499481,587.364380 280.565552,583.537048 259.912262,578.212219 
	C254.661942,576.858704 252.335846,578.064575 250.194107,583.133179 
	C243.930344,597.957031 236.181183,611.903442 222.934998,621.922974 
	C206.045517,634.698303 183.787628,630.823792 174.731659,613.467285 
	C168.060028,600.680664 170.620834,583.811890 181.214767,572.149170 
	C192.119705,560.144165 206.098572,554.673157 222.005478,553.751648 
	C226.817596,553.472839 231.672714,553.677063 236.494690,553.923340 
	C239.448700,554.074341 241.211609,553.030884 242.165237,550.238708 
	C243.398132,546.628906 244.797302,543.075928 246.370331,538.837097 
	C240.018417,540.832825 234.573669,543.536865 228.527527,544.537292 
	C207.904007,547.949829 190.544327,537.969421 183.664352,518.257629 
	C177.346603,500.156616 180.335495,482.434662 186.564819,465.047333 
	C188.071991,460.840546 187.652023,458.380981 184.393875,455.157593 
	C169.621368,440.542664 168.249817,418.350159 180.666626,401.860901 
	C184.086563,397.319305 188.498367,395.509399 193.304306,396.989075 
	C197.245758,398.202515 199.806396,400.783661 200.548676,405.064423 
	C201.201157,408.827393 199.393402,411.446960 197.024078,413.936676 
	C190.404785,420.892242 191.326492,434.927795 198.069992,439.058289 
	C200.262238,437.956726 200.996353,435.603058 202.277161,433.744934 
	C214.809158,415.564148 230.791992,402.147919 252.852692,397.228088 
	C260.083862,395.615417 267.382263,395.361603 274.541290,397.821533 
	C294.173767,404.567566 301.565735,425.348267 290.700348,444.480896 
	C280.052826,463.229828 262.986603,472.073090 242.060654,474.262054 
	C238.926727,474.589844 235.733536,474.351227 232.082825,474.361176 
M257.406769,416.941864 
	C237.627869,420.842682 225.903534,434.551270 215.384247,450.495300 
	C219.829681,453.026611 223.949280,453.753510 228.016525,454.235779 
	C244.941406,456.242615 259.840210,452.141083 271.006958,438.556366 
	C275.007782,433.689270 278.015167,427.703583 274.363129,421.535522 
	C270.781555,415.486450 264.405396,415.749054 257.406769,416.941864 
M224.406860,574.107971 
	C212.452438,574.124573 202.078430,577.733276 194.766724,587.709839 
	C189.913498,594.331848 189.803024,602.520752 194.142181,606.518860 
	C198.718048,610.735107 206.958862,609.771179 213.165787,604.171692 
	C219.563660,598.399902 224.234421,591.334900 228.021667,583.665894 
	C229.376007,580.923401 231.381683,578.376038 231.386292,575.192261 
	C229.317108,573.721741 227.265900,574.208252 224.406860,574.107971 
z"/>
</svg>